<svg version="1.1" id="Layer_1" xmlns="http://www.w3.org/2000/svg" xmlns:xlink="http://www.w3.org/1999/xlink" x="0px" y="0px"
	 width="100%" viewBox="0 0 662 420" enable-background="new 0 0 662 420" xml:space="preserve">
<path fill="#000000" opacity="1.000000" stroke="none" 
	d="
M600.732544,1.278320 
	C620.660278,1.000000 640.320862,1.048988 659.980469,0.937861 
	C662.431763,0.924005 663.067322,1.430829 663.065979,3.978905 
	C662.991516,141.934006 662.986938,279.889160 663.087341,417.844238 
	C663.089478,420.815063 662.235229,421.062714 659.657837,421.061920 
	C441.228851,420.994873 222.799896,420.988556 4.370978,421.106598 
	C1.026270,421.108398 0.946534,420.000061 0.949104,417.373138 
	C1.013822,351.227905 1.000000,285.082611 1.000000,218.468658 
	C3.120206,216.217300 5.112080,217.522186 7.033317,218.358261 
	C17.768270,223.029800 29.020897,225.266739 40.628098,226.645844 
	C53.272213,228.148132 65.888260,227.406219 78.502228,227.387024 
	C92.161903,227.366241 101.840225,220.550735 106.937523,206.807144 
	C109.976227,198.614029 113.939468,190.634567 117.916946,182.795853 
	C121.910942,174.924576 126.189095,167.044846 129.042969,158.842194 
	C133.362396,146.427185 142.858292,143.516876 153.766678,142.605484 
	C167.754333,141.436829 180.617737,146.300812 193.074448,151.874939 
	C218.823715,163.397186 242.134506,179.007965 265.019043,195.339951 
	C281.785889,207.305908 299.166077,218.339828 317.186005,228.365479 
	C334.955109,238.251587 353.394653,246.589020 372.678833,253.014709 
	C390.901520,259.086700 409.580872,262.770966 428.855621,261.400177 
	C442.990723,260.394928 456.362000,256.510223 466.938690,246.375885 
	C475.444244,238.226028 479.720154,227.905960 480.473419,216.206711 
	C481.496094,200.322906 476.380432,186.195480 467.790283,173.096771 
	C464.520966,168.111511 460.953796,163.270432 459.508362,157.308289 
	C457.103943,147.390488 460.390717,138.585175 465.246552,130.331436 
	C473.707458,115.950058 485.740906,104.657379 498.165649,93.808853 
	C520.578247,74.239494 544.966553,57.139431 567.906189,38.234383 
	C577.011047,30.730923 585.716553,22.712400 593.103088,13.377457 
	C596.024231,9.685745 597.551941,5.205484 600.732544,1.278320 
z"/>
<path fill="#00B5F8" opacity="1.000000" stroke="none" 
	d="
M600.625000,1.000000 
	C599.918274,8.326742 595.271423,13.718991 590.579041,18.798828 
	C577.498901,32.959023 562.361328,44.766243 547.164734,56.581753 
	C531.072021,69.093971 514.696655,81.276634 499.459229,94.900307 
	C488.850952,104.385109 478.573456,114.120903 470.067291,125.538643 
	C464.681488,132.767944 461.033020,140.985321 460.120453,149.997025 
	C459.495209,156.171280 462.100494,161.986832 465.553741,166.864700 
	C473.321625,177.837158 479.407837,189.432892 481.427734,202.844711 
	C484.997192,226.545074 475.487091,248.211060 451.695160,257.971191 
	C438.280945,263.474091 424.038818,264.117981 409.988647,262.801819 
	C390.069916,260.935944 371.054657,254.963303 352.575836,247.250122 
	C328.852051,237.347687 306.492554,224.981018 285.184052,210.669312 
	C268.624817,199.547409 252.328293,188.023148 235.574829,177.204514 
	C216.381805,164.810486 196.697098,153.260635 174.492538,146.804581 
	C162.761658,143.393784 151.294189,142.342163 139.793839,147.936172 
	C135.760483,149.898071 134.303116,153.275482 132.674316,156.788330 
	C126.098000,170.971573 119.777481,185.273392 112.459831,199.106506 
	C110.266037,203.253601 108.628387,207.691147 106.544205,211.900681 
	C100.993065,223.112549 91.776382,228.741364 79.380104,228.965271 
	C68.551071,229.160873 57.673611,229.610367 46.893074,228.861069 
	C31.159245,227.767471 15.613114,225.235031 1.266367,217.658844 
	C1.000000,216.933334 1.000000,215.866653 1.000000,214.399994 
	C2.745269,212.816589 4.478784,213.235764 6.212403,214.033905 
	C21.302076,220.980927 37.341049,223.358948 54.131859,223.931702 
	C55.208405,223.981750 55.905426,224.086868 56.938278,224.147949 
	C57.705574,224.164383 58.140343,224.192581 58.896919,224.253311 
	C60.871838,224.546951 62.526619,224.738693 64.513680,224.388123 
	C65.252625,224.316544 65.675995,224.303055 66.415558,224.289291 
	C67.366051,224.236359 68.002815,224.223434 68.970978,224.040848 
	C74.261505,223.487320 79.240425,223.874481 84.201294,222.910522 
	C90.398552,221.706329 95.348846,218.892853 99.417007,213.285568 
	C87.678482,215.245148 76.313515,215.696289 64.950111,215.192993 
	C47.443481,214.417633 30.165504,212.251785 14.412031,203.749115 
	C9.335335,201.009033 4.030797,198.327682 1.249843,192.278976 
	C1.000000,190.285645 1.000000,188.571289 1.000000,186.428467 
	C2.642328,185.238144 3.887826,185.970322 5.002054,187.095688 
	C15.923705,198.126587 29.727797,203.064651 44.588276,205.573715 
	C60.422829,208.247253 76.346222,208.593643 92.304153,206.664734 
	C98.178810,205.954636 102.720528,203.185104 105.857796,197.983932 
	C99.158501,198.963989 92.497711,198.707153 85.960541,198.731400 
	C63.034428,198.816437 40.187237,197.441956 20.779568,182.939804 
	C9.653438,174.625916 4.648130,162.856522 3.833419,149.293564 
	C2.841639,132.782867 7.481291,117.364258 13.720101,102.333069 
	C21.838280,82.773895 28.894785,62.927814 32.157272,41.853062 
	C34.054073,29.600277 33.806767,17.704504 29.319685,6.043929 
	C28.788748,4.664184 28.056606,3.286127 28.818445,1.358841 
	C30.066669,1.000000 31.133339,1.000000 32.600006,1.000000 
	C39.340416,5.114329 39.389793,11.960941 40.141075,18.280806 
	C42.369156,37.023697 38.170509,54.965961 32.777565,72.718781 
	C28.415506,87.078087 22.415400,100.830048 17.219582,114.880150 
	C14.147187,123.188278 11.895919,131.775726 11.394570,140.611557 
	C10.072600,163.910095 20.946169,179.368408 43.590786,186.047684 
	C59.164902,190.641403 75.127968,192.649429 91.413956,190.900421 
	C95.375015,190.475021 99.410591,191.057983 103.332359,189.921082 
	C105.271355,189.358963 107.162323,188.789124 108.746620,187.480911 
	C110.317169,186.184067 112.256073,184.624146 111.449585,182.580521 
	C110.688927,180.653030 108.470085,182.163132 106.939590,182.191879 
	C90.112221,182.507736 73.262924,182.943542 56.882484,178.116608 
	C45.868061,174.870911 35.864674,169.981796 28.616798,160.459229 
	C20.853409,150.259384 19.175446,138.731308 20.167740,126.447449 
	C21.521070,109.694214 28.959381,94.830406 34.631035,79.397812 
	C40.841087,62.500240 46.499992,45.436062 46.896893,27.140320 
	C47.049660,20.098179 46.747086,13.160928 44.104454,6.513865 
	C43.491352,4.971722 42.762623,3.419106 43.808929,1.358979 
	C45.066669,1.000000 46.133339,1.000000 47.600006,1.000000 
	C53.185410,4.561710 53.658398,10.279813 54.083313,15.648820 
	C55.413555,32.456959 52.759808,48.791725 47.779140,64.871376 
	C43.139854,79.848892 36.603390,94.109543 31.675474,108.968498 
	C29.409256,115.801750 27.914459,122.811050 27.399384,129.958344 
	C26.102381,147.955704 35.868954,162.307068 53.440456,168.779160 
	C64.341156,172.794205 75.600380,174.690506 87.190750,174.719788 
	C93.187706,174.734940 99.188683,174.872101 105.180580,174.642548 
	C108.845451,174.502136 112.575722,174.117950 115.475334,171.516830 
	C116.839088,170.293472 118.018860,168.589386 117.016075,166.655334 
	C116.165741,165.015305 114.448723,165.617569 112.962303,165.739014 
	C96.528404,167.081772 80.303360,165.970627 64.777084,160.136368 
	C50.014256,154.588989 39.484604,144.903412 36.883961,128.459396 
	C35.155266,117.528809 36.920650,106.940849 40.155495,96.519363 
	C44.206738,83.467751 50.467758,71.223503 54.277092,58.085258 
	C57.851086,45.758705 61.170883,33.398132 60.779762,20.357246 
	C60.643795,15.823836 60.083191,11.414012 58.993359,7.036318 
	C58.560482,5.297517 57.610394,3.569592 58.805790,1.358822 
	C60.066669,1.000000 61.133339,1.000000 62.600006,1.000000 
	C67.384048,4.482122 67.807053,9.530000 68.184624,14.510739 
	C69.362335,30.046402 66.275803,44.984657 61.793617,59.745293 
	C57.817810,72.838318 51.810574,85.182716 47.702393,98.203278 
	C44.853161,107.233688 42.691666,116.403770 44.165890,126.148598 
	C45.981640,138.150970 52.575768,146.486069 63.274254,151.203064 
	C81.132301,159.076736 99.969215,160.102127 119.113136,157.516327 
	C121.007652,157.260452 122.641716,156.427872 123.706879,154.803009 
	C124.599701,153.441025 126.044701,151.986954 125.241760,150.308044 
	C124.485901,148.727585 122.573677,149.295959 121.135735,149.291641 
	C108.657455,149.254089 96.173149,149.772919 83.941170,146.233704 
	C75.096329,143.674515 67.188782,139.835007 61.062908,132.747772 
	C55.970417,126.856110 53.312469,120.068161 52.765095,112.322556 
	C51.924603,100.429161 54.291847,89.144859 58.767971,78.195686 
	C65.327286,62.150761 71.764732,46.065079 74.103172,28.706331 
	C75.043694,21.724569 75.209518,14.781258 73.549576,7.870351 
	C73.054619,5.809703 72.027405,3.722730 73.743431,1.314636 
	C75.066673,1.000000 76.133339,1.000000 77.600006,1.000000 
	C81.837540,4.301270 81.880646,8.945338 82.164139,13.386740 
	C82.991577,26.349895 80.726112,38.915302 76.917953,51.255150 
	C73.624535,61.927071 69.384552,72.245026 65.360573,82.649155 
	C62.413517,90.268867 60.202717,98.084175 60.239811,106.421394 
	C60.315311,123.389755 67.766716,133.515701 84.153557,138.294495 
	C91.201141,140.349747 98.384369,141.759766 106.133881,141.933899 
	C107.201157,141.981506 107.889961,142.097519 108.910645,142.155579 
	C109.665504,142.164581 110.093605,142.183151 110.839905,142.213135 
	C112.198883,142.268280 113.236977,142.394714 114.596649,142.280762 
	C115.333687,142.240601 115.755722,142.236221 116.496490,142.221191 
	C117.467407,142.153870 118.121391,142.128448 119.127380,141.986130 
	C121.643066,141.765076 123.814049,141.805115 125.965553,141.558273 
	C127.997414,141.325195 129.933731,140.732559 131.297287,139.137131 
	C132.469772,137.765305 134.080139,136.168137 133.447250,134.352097 
	C132.764603,132.393295 130.529480,133.261063 128.996826,133.297119 
	C119.654678,133.516891 110.387177,132.975388 101.201500,131.166046 
	C93.218643,129.593613 85.854858,126.561584 79.669952,121.268242 
	C69.019669,112.153214 67.465492,100.058800 69.311150,87.112846 
	C70.900932,75.961662 75.563728,65.768082 79.674828,55.418076 
	C84.059105,44.380295 87.038963,32.965176 88.506516,21.197926 
	C89.059792,16.761587 89.004417,12.240679 88.031654,7.779955 
	C87.585716,5.735045 86.733070,3.535683 88.738640,1.297471 
	C89.750000,1.000000 90.500000,1.000000 91.625000,1.000000 
	C95.805664,3.373414 95.908974,7.323471 96.174271,11.117149 
	C97.000496,22.931936 94.459206,34.281254 91.128387,45.487701 
	C88.661057,53.788998 85.414200,61.812183 82.244225,69.866234 
	C78.882950,78.406357 75.979172,87.116890 76.322701,96.477692 
	C76.742157,107.907860 82.230759,116.093010 92.797028,120.470306 
	C105.876335,125.888672 119.672729,126.351524 133.553894,125.450066 
	C136.953583,125.229294 140.032120,123.946785 141.475647,120.311378 
	C142.931931,116.643814 142.304810,115.453651 138.285934,115.320000 
	C131.313110,115.088104 124.310501,115.641693 117.396088,114.159264 
	C108.173584,112.181992 99.237411,109.572853 92.891113,101.970253 
	C84.881096,92.374596 84.764297,81.331367 87.372055,69.835175 
	C88.966232,62.807327 92.009468,56.313301 94.577858,49.644428 
	C98.656532,39.054066 101.918671,28.245184 103.458740,16.972481 
	C103.865402,13.995911 103.854851,10.998227 103.279732,8.023671 
	C102.867729,5.892721 102.470329,3.754467 103.797104,1.348127 
	C105.066673,1.000000 106.133339,1.000000 107.600006,1.000000 
	C112.645348,6.273243 111.367020,12.559310 110.768646,18.595137 
	C109.374550,32.657230 104.403267,45.742271 99.230507,58.738564 
	C96.762100,64.940285 94.761978,71.233635 93.729355,77.862816 
	C91.941139,89.342697 98.114014,99.866928 109.043709,104.008598 
	C120.256363,108.257492 131.881912,108.070885 143.538391,107.531464 
	C147.212509,107.361443 150.718719,103.658134 151.182983,100.038155 
	C151.576584,96.969177 149.332428,97.523392 147.574142,97.549599 
	C141.267960,97.643608 134.949402,97.608986 128.777588,96.208603 
	C106.398804,91.130859 101.083519,78.634720 104.552124,58.478374 
	C105.656006,52.063625 108.516319,46.148869 110.788681,40.072216 
	C115.046715,28.685516 119.039314,17.215872 118.217697,4.746044 
	C118.137344,3.526352 118.598869,2.466968 119.729263,1.295150 
	C120.750000,1.000000 121.500000,1.000000 122.625000,1.000000 
	C126.025459,3.998947 126.166168,7.682922 125.807899,11.642860 
	C124.607857,24.907005 120.595985,37.363346 115.375076,49.514191 
	C112.996323,55.050400 111.351387,60.797581 111.020622,66.876862 
	C110.527534,75.939560 113.776451,82.026535 121.937653,85.758957 
	C132.034058,90.376442 142.684448,91.418663 153.628632,89.596375 
	C155.960464,89.208099 157.538467,87.863159 158.710190,85.923965 
	C161.189392,81.820831 160.409653,80.297409 155.560974,80.286873 
	C150.183563,80.275185 144.938980,79.420143 139.776871,78.094543 
	C124.747284,74.235054 118.113068,63.094055 121.363678,47.797245 
	C122.935326,40.401382 126.235390,33.643940 128.612045,26.549627 
	C130.731506,20.223042 132.716873,13.875907 132.780273,7.102813 
	C132.798828,5.122240 132.696426,3.046096 134.729065,1.283683 
	C135.750000,1.000000 136.500000,1.000000 137.625000,1.000000 
	C141.857574,5.177785 140.284134,10.135165 139.667740,14.767806 
	C138.562531,23.074099 135.527481,30.864182 132.323044,38.563141 
	C130.717224,42.421276 129.424042,46.381805 128.658264,50.483166 
	C126.884010,59.985741 130.766479,66.914452 139.882339,70.099968 
	C146.555130,72.431763 153.491791,73.106918 160.569107,72.633362 
	C164.948608,72.340317 166.845566,69.530670 168.406265,65.982513 
	C169.605011,63.257290 168.708664,62.221138 165.983765,62.282005 
	C162.298584,62.364323 158.685852,61.892368 155.088104,61.128426 
	C142.255142,58.403469 136.049561,48.970913 138.512939,36.104755 
	C139.238800,32.313576 140.325912,28.664587 141.830063,25.138674 
	C144.520889,18.831068 146.554306,12.332955 147.713760,5.573147 
	C147.971237,4.072012 148.194977,2.605799 149.729279,1.282650 
	C150.750000,1.000000 151.500000,1.000000 152.625000,1.000000 
	C155.903336,3.477891 155.318985,6.674331 154.692810,9.792303 
	C153.343674,16.510262 151.138153,22.967775 148.459564,29.265701 
	C147.871750,30.647736 147.321640,32.038593 146.903687,33.482189 
	C143.173676,46.365440 148.013016,53.425407 161.436920,54.626289 
	C163.761047,54.834198 166.101135,54.781384 168.432434,54.704552 
	C172.800980,54.560570 176.808075,51.229607 177.637817,47.078659 
	C178.153030,44.501209 176.263992,44.361870 174.588745,44.318333 
	C171.059189,44.226620 167.652634,43.794930 164.397751,42.264309 
	C156.787689,38.685646 154.303528,33.569172 156.035889,23.040749 
	C157.173126,16.129271 160.681198,9.885142 162.597153,3.162638 
	C162.823898,2.367091 163.786926,2.039601 164.714661,1.259360 
	C165.750000,1.000000 166.500000,1.000000 167.625000,1.000000 
	C170.403351,3.514179 169.186142,6.341648 168.517975,8.997116 
	C167.421951,13.352969 165.526886,17.459291 164.136139,21.722244 
	C161.172104,30.807749 163.994476,35.286423 173.754562,36.833084 
	C174.991806,36.906776 175.882706,36.995422 177.100250,37.030048 
	C178.047134,37.133141 178.647568,37.318100 179.532013,37.529293 
	C180.168991,37.602486 180.520447,37.565075 181.113174,37.286140 
	C185.186310,33.415310 185.019363,32.631538 180.087982,31.131216 
	C170.681396,28.269361 167.225067,22.328732 170.012375,12.959049 
	C171.215332,8.915181 171.941132,4.475283 175.753693,1.246685 
	C176.750000,1.000000 177.500000,1.000000 178.625000,1.000000 
	C180.776520,2.454662 180.405289,4.136505 179.617966,5.947229 
	C178.561325,8.377386 177.889236,10.947963 177.307922,13.520879 
	C175.695770,20.656223 176.656708,22.219061 183.684952,24.311213 
	C175.422150,19.442316 174.920700,9.755829 182.751678,1.242984 
	C185.370560,1.000000 187.741104,1.000000 190.555832,1.000000 
	C192.693115,2.448502 192.012253,4.277488 191.884506,6.064307 
	C191.723221,8.320584 193.036804,9.371266 195.164215,9.515978 
	C196.183212,9.585293 197.228683,9.429347 197.686584,8.380795 
	C198.083145,7.472708 197.347183,6.865668 196.764328,6.283655 
	C195.465820,4.987007 194.154556,3.697186 194.829926,1.295947 
	C198.361282,1.000000 201.722580,1.000000 205.541931,1.000000 
	C214.270309,4.161827 221.366653,9.745923 229.773483,12.597837 
	C234.814102,14.307797 235.814072,13.395126 234.796066,8.280109 
	C234.281387,5.693952 234.308136,3.344711 236.754913,1.245941 
	C238.714355,1.000000 240.428711,1.000000 242.571533,1.000000 
	C243.123047,6.063403 241.817215,10.999913 241.834015,16.105330 
	C241.843964,19.128290 238.509003,20.441292 235.601456,20.914204 
	C231.830261,21.527586 228.436661,20.215733 225.156662,18.477123 
	C220.031998,15.760708 215.443069,12.169467 211.697388,10.045331 
	C214.690308,11.441742 218.368805,14.547365 222.457336,16.997274 
	C226.645187,19.506695 231.152878,21.054216 235.819916,22.205257 
	C241.003418,23.483667 242.475433,22.177921 242.283295,16.932287 
	C242.240677,15.768126 242.095505,14.621005 241.990753,13.471236 
	C241.492859,8.006486 242.927109,3.634956 248.749176,1.242798 
	C251.041672,1.000000 253.083328,1.000000 255.562500,1.000000 
	C257.014069,3.994155 254.548660,5.331703 252.870987,6.603015 
	C249.562836,9.109869 248.455032,11.538676 249.636642,15.950255 
	C252.075668,25.056383 246.930176,30.454735 238.056335,29.365950 
	C240.849335,30.019791 244.013977,30.094227 247.162872,29.846104 
	C251.888718,29.473724 253.744171,26.993963 251.631622,22.807337 
	C246.903656,13.437567 252.325684,4.769453 261.745056,1.236638 
	C263.714355,1.000000 265.428711,1.000000 267.571533,1.000000 
	C268.978363,3.184960 267.446045,4.336339 266.157532,5.652023 
	C264.401917,7.444660 262.269775,8.768655 260.415100,10.426851 
	C257.814514,12.751961 256.971008,15.299462 258.429382,18.859756 
	C262.943390,29.879536 257.828522,37.110962 245.850800,37.209518 
	C234.814957,37.300327 226.368393,31.308620 217.875336,25.470469 
	C213.803940,22.671762 209.742004,19.988218 204.771484,19.048025 
	C218.064880,24.507692 228.332077,35.041641 241.490158,40.748096 
	C245.821762,42.626648 250.196869,44.089230 254.833130,44.551064 
	C258.386566,44.905033 261.876984,44.278645 264.159027,41.028973 
	C266.435516,37.787121 265.124237,34.641708 263.584473,31.626768 
	C259.830963,24.277283 260.300598,19.722492 265.862732,13.553505 
	C270.325989,8.603289 275.292419,4.241129 281.738892,1.244772 
	C284.041656,1.000000 286.083344,1.000000 288.562500,1.000000 
	C289.839752,4.659807 286.752411,5.980250 284.683289,7.544079 
	C280.828003,10.457864 277.134338,13.558769 273.420990,16.633520 
	C268.774414,20.481024 268.264923,23.185408 270.737976,28.710449 
	C273.484131,34.845684 274.335419,40.979454 269.742096,46.595852 
	C264.927460,52.482903 258.292938,52.857632 251.459518,51.734203 
	C238.755798,49.645691 228.261078,42.828465 218.021606,35.610889 
	C213.504761,32.427067 208.770569,29.715670 203.739807,27.465818 
	C200.760239,26.133301 198.267776,26.245707 196.215591,30.041573 
	C213.877060,32.933537 226.073822,45.597004 240.640915,54.002380 
	C248.478806,58.524944 256.612396,62.291412 265.514618,64.142342 
	C270.303101,65.137962 275.086426,65.397881 279.658447,63.042030 
	C284.524475,60.534679 286.436646,56.249222 284.970367,50.993401 
	C284.246979,48.400414 283.077881,45.979485 281.684540,43.722668 
	C278.418549,38.432693 279.021515,33.370975 281.882019,28.144583 
	C285.603516,21.345003 291.662079,16.828148 297.452911,12.140965 
	C302.209167,8.291154 306.795258,4.094604 312.733582,1.246353 
	C314.714355,1.000000 316.428711,1.000000 318.571533,1.000000 
	C320.281464,4.334366 317.775238,5.912073 315.777283,7.544453 
	C308.827393,13.222682 301.458771,18.376970 294.852631,24.494883 
	C293.375000,25.863337 292.153900,27.415312 290.750061,28.811701 
	C286.731506,32.808933 286.138824,36.977703 289.406952,41.780838 
	C291.388672,44.693348 292.416107,48.106155 292.939850,51.575619 
	C294.510132,61.977951 286.840668,71.116615 275.899384,72.100319 
	C269.327148,72.691200 262.919312,71.840607 256.715912,69.755028 
	C245.591751,66.015068 235.443924,60.343941 225.911469,53.557091 
	C219.260132,48.821526 212.477676,44.313793 205.142197,40.687115 
	C202.281174,39.272629 199.264099,38.384056 196.136139,37.801273 
	C194.196609,37.439903 192.501801,37.843319 191.041412,39.162640 
	C190.541336,39.614399 190.101685,40.186989 190.266708,40.885250 
	C190.454041,41.677956 191.217606,41.693905 191.871765,41.757580 
	C208.633606,43.389202 221.119019,53.751991 234.295700,62.637047 
	C248.295929,72.077431 262.592133,80.856529 279.492035,84.117683 
	C285.253235,85.229416 291.093231,85.514046 296.723938,83.357216 
	C303.795746,80.648369 306.995911,74.111076 304.924988,66.831917 
	C304.011688,63.621719 302.896729,60.487530 301.002136,57.691559 
	C296.004242,50.315838 297.258118,43.285686 302.083984,36.377380 
	C306.135254,30.577925 311.242035,25.854771 316.790283,21.560225 
	C325.586945,14.751290 333.901794,7.301469 343.727051,1.248375 
	C345.714355,1.000000 347.428711,1.000000 349.571533,1.000000 
	C351.106995,3.571892 349.448608,5.073495 347.799225,6.517831 
	C339.533752,13.755691 330.610901,20.173830 322.096497,27.099300 
	C317.458466,30.871815 312.963531,34.837208 309.229523,39.572872 
	C304.651123,45.379490 304.586273,48.322586 308.340912,54.895996 
	C311.956116,61.225285 314.326691,67.901184 312.464478,75.395081 
	C310.016205,85.247398 302.683563,91.312729 292.623962,92.154587 
	C280.647827,93.156837 269.516968,90.270592 258.724579,85.434631 
	C245.270920,79.406166 233.243500,71.017929 221.088348,62.832325 
	C214.177231,58.178192 207.202438,53.647411 199.287003,50.778526 
	C196.087997,49.619068 192.872726,48.979740 189.496170,49.381321 
	C187.692261,49.595863 185.828232,49.848789 185.203323,52.394363 
	C204.182877,54.040215 218.999954,64.576775 233.944229,74.824928 
	C248.659210,84.915810 263.486969,94.827812 280.540222,100.658737 
	C289.521057,103.729523 298.621368,106.301544 308.340546,104.794128 
	C323.035950,102.514923 329.112122,91.945145 323.556061,78.247124 
	C322.421783,75.450645 321.074463,72.742805 319.384491,70.302147 
	C314.454865,63.182823 315.314789,56.161556 319.466339,49.220406 
	C322.907532,43.466949 327.307159,38.441925 332.388977,34.072823 
	C342.610138,25.285172 353.520294,17.355698 363.991638,8.877701 
	C367.311127,6.190117 370.015381,2.613581 374.723877,1.248511 
	C376.066681,1.000000 377.133331,1.000000 378.600006,1.000000 
	C381.035553,3.886068 378.908386,5.690443 377.169708,7.411070 
	C371.006500,13.510343 364.088257,18.716160 357.232910,23.992907 
	C348.131439,30.998537 338.992249,37.953594 331.194977,46.482452 
	C329.269318,48.588799 327.545990,50.804428 326.077362,53.230221 
	C323.351807,57.732105 322.921204,62.025291 326.157257,66.715851 
	C329.373657,71.377937 331.512207,76.650177 332.706299,82.274559 
	C335.821594,96.947945 324.532562,111.133415 309.533081,112.255287 
	C289.287048,113.769547 271.659302,106.585274 254.538208,97.124741 
	C240.518250,89.377785 228.111282,79.149376 214.330521,71.051949 
	C206.714966,66.577148 198.891541,62.458210 190.076477,60.735607 
	C186.135101,59.965389 182.517807,60.320980 179.721405,63.310040 
	C179.660934,64.201782 180.046371,64.619591 180.543304,64.600388 
	C195.672531,64.015663 208.069931,71.201134 220.460800,78.501526 
	C234.246521,86.623718 246.735794,96.692612 260.472321,104.896790 
	C274.860382,113.490074 289.855194,120.533188 306.320221,124.112396 
	C317.012177,126.436630 327.529663,126.727821 337.099854,120.355621 
	C344.047241,115.729767 346.422882,108.821014 345.417755,100.805016 
	C344.704285,95.114876 342.540527,89.748329 339.167786,85.154572 
	C332.632233,76.252831 333.471893,67.397270 338.899628,58.627563 
	C342.677063,52.524200 347.603058,47.303570 353.008057,42.531605 
	C368.228851,29.093452 385.241333,17.863411 400.216675,4.130171 
	C401.476746,2.974648 403.170746,2.592422 404.721771,1.250270 
	C406.066681,1.000000 407.133331,1.000000 408.600006,1.000000 
	C410.660492,4.119254 408.488739,6.002127 406.696381,7.949058 
	C398.301056,17.068434 388.262115,24.273933 378.489563,31.745157 
	C368.414642,39.447559 358.720337,47.523361 349.971863,56.719406 
	C347.648621,59.161514 345.782532,61.881012 344.211578,64.838318 
	C341.255096,70.403770 341.698944,75.627174 345.401855,80.762749 
	C349.981964,87.114807 352.647247,94.328354 353.075104,102.102371 
	C353.920715,117.465668 343.938232,129.312363 328.797028,132.120377 
	C315.171448,134.647324 302.270081,131.771790 289.660095,127.299927 
	C268.119446,119.660980 249.137360,107.326675 230.584229,94.242760 
	C219.963943,86.753204 209.050293,79.695274 196.806580,75.018005 
	C193.065765,73.588951 189.295334,72.378906 185.258591,71.953621 
	C180.671616,71.470367 176.786057,72.705116 172.892288,75.962677 
	C192.819031,74.281746 208.396545,83.989380 223.938705,93.337341 
	C239.914368,102.946022 254.453735,114.794495 270.710388,123.999359 
	C288.326202,133.973801 306.484100,142.551315 326.855011,145.276764 
	C335.973572,146.496750 344.760071,145.733475 353.072906,141.366058 
	C362.497986,136.414291 367.461395,126.262032 365.231628,115.844727 
	C364.077881,110.454437 362.704407,105.064827 359.237152,100.618996 
	C348.892090,87.354279 352.065247,76.192322 361.927551,63.504864 
	C371.940979,50.623020 385.137756,41.176559 397.888031,31.301933 
	C410.126709,21.823561 422.215210,12.177474 433.733459,1.262602 
	C435.388885,1.000000 436.777802,1.000000 438.583344,1.000000 
	C440.559296,4.597076 437.909363,6.587811 435.930817,8.728985 
	C426.511780,18.922281 415.631866,27.426371 404.598358,35.762012 
	C392.507202,44.896675 380.622345,54.274788 370.255096,65.423676 
	C367.274872,68.628563 364.721741,72.118622 362.743683,75.963593 
	C359.710541,81.859489 359.611145,87.526001 363.781952,93.293884 
	C369.532440,101.246292 373.144104,110.140564 373.183563,120.182205 
	C373.241852,135.018372 363.976288,147.136078 349.667725,151.179840 
	C335.462006,155.194473 321.576996,152.993622 307.898285,148.887863 
	C283.842712,141.667465 262.586151,128.925339 242.124649,114.729149 
	C226.670502,104.007065 211.426300,92.928474 193.551453,86.375023 
	C188.701111,84.596733 183.750061,83.093559 178.481384,83.287384 
	C175.307709,83.404144 172.355743,84.173630 169.159760,86.592430 
	C186.012466,85.054192 199.831146,91.614418 213.371445,98.837212 
	C229.861588,107.633545 244.647491,119.094009 260.203613,129.352585 
	C282.137115,143.816788 304.988708,156.373840 330.903687,162.282486 
	C342.731903,164.979324 354.566620,166.015579 366.221619,161.329315 
	C380.646515,155.529312 387.283661,141.791473 382.918823,126.747643 
	C381.186279,120.776215 378.561768,115.207596 374.963593,110.152390 
	C367.754456,100.024101 368.741577,89.854309 374.778992,79.744530 
	C381.632294,68.268517 391.503357,59.566044 401.620300,51.111328 
	C416.432434,38.732815 432.241302,27.610828 446.961578,15.122171 
	C450.515015,12.107414 453.795685,8.754858 456.877380,5.258472 
	C458.233490,3.719834 459.748932,2.540132 461.723267,1.249878 
	C463.066681,1.000000 464.133331,1.000000 465.600006,1.000000 
	C467.814911,5.159281 464.773712,7.574066 462.513367,10.070713 
	C452.752686,20.851761 441.445343,29.880365 429.854950,38.585541 
	C417.353088,47.975239 405.057434,57.656521 393.671570,68.365906 
	C388.130798,73.577499 383.293762,79.590469 379.826080,86.549034 
	C376.648529,92.925430 376.716125,99.043358 380.796417,104.949364 
	C383.553986,108.940704 386.113129,113.093018 387.788605,117.600891 
	C393.025757,131.691605 393.963745,145.557297 383.920410,158.194687 
	C377.421570,166.372040 368.383423,169.796326 358.345734,171.162048 
	C337.218262,174.036697 317.919189,167.555161 298.941559,159.536041 
	C274.065430,149.024445 252.355865,133.281815 230.280411,118.091347 
	C217.386047,109.218521 203.921341,101.170021 188.877609,96.310074 
	C183.026794,94.419945 177.059982,92.759857 170.781082,94.300888 
	C169.010193,94.735519 167.209732,95.073097 165.404221,96.619095 
	C170.253326,97.231270 174.810928,96.565498 179.327133,97.386971 
	C195.226181,100.278961 208.972916,108.053734 222.670990,115.989494 
	C239.400009,125.681183 254.558228,137.733353 270.839844,148.097427 
	C291.278778,161.107819 312.587891,172.295029 336.017303,178.999481 
	C343.235474,181.064972 350.601471,182.339523 358.419617,183.037308 
	C359.398743,183.195084 360.016022,183.396744 360.957672,183.557083 
	C361.659882,183.689178 362.045563,183.813248 362.671143,184.128616 
	C363.296906,184.201996 363.045471,185.239975 363.887085,184.504440 
	C364.433594,184.115829 364.791748,183.967819 365.454895,183.785431 
	C366.336456,183.591049 366.937408,183.506393 367.836182,183.216965 
	C376.110199,181.997208 383.973663,180.517380 390.630341,175.614563 
	C401.435455,167.656311 405.222198,154.682404 401.086395,140.297211 
	C399.370453,134.328735 396.735260,128.770142 393.265900,123.646339 
	C384.851532,111.219376 384.030609,101.745819 394.584564,85.877808 
	C403.352142,72.695602 415.637787,62.898991 427.781525,53.030487 
	C442.739960,40.874676 458.454468,29.673929 473.076263,17.092144 
	C478.632385,12.311215 482.948914,6.321208 488.737183,1.259898 
	C490.066681,1.000000 491.133331,1.000000 492.600006,1.000000 
	C495.082825,3.647705 493.292206,5.785378 491.880463,7.742963 
	C486.683929,14.948601 480.252228,21.063078 473.497620,26.704407 
	C454.095306,42.908905 433.199127,57.278095 414.514984,74.368515 
	C408.111359,80.225967 402.602539,86.906296 398.218201,94.454674 
	C393.403503,102.743950 393.333374,110.670212 399.180084,118.691452 
	C404.734711,126.311928 408.081909,134.938126 409.792633,144.297409 
	C413.371674,163.878601 401.495239,183.060043 382.174774,188.066483 
	C366.106079,192.230316 350.135498,190.789383 334.372284,186.358536 
	C302.982056,177.535126 275.450500,161.090302 249.000946,142.613434 
	C230.429184,129.639786 211.954269,116.494087 190.551041,108.432655 
	C182.450928,105.381783 174.133072,102.718315 165.232941,105.138557 
	C163.457596,105.621330 161.698502,106.086029 159.911270,107.592728 
	C166.096970,108.231323 172.044052,107.139465 177.854355,108.331177 
	C192.908295,111.418785 206.344116,118.303993 219.551575,125.847473 
	C239.110016,137.018341 256.773956,151.026566 275.766327,163.028671 
	C300.636963,178.745483 326.379120,192.632538 355.429901,199.143784 
	C368.043823,201.970993 380.700165,203.176254 393.487061,199.961212 
	C410.389587,195.711441 420.324432,185.079987 421.330994,167.811203 
	C421.974213,156.775589 417.557709,146.646790 411.724579,137.287109 
	C409.790863,134.184250 407.491364,131.315048 406.044434,127.899956 
	C402.045502,118.461578 404.120941,109.539978 408.625580,101.035736 
	C415.215454,88.594994 425.472504,79.220078 435.805725,70.036575 
	C455.716522,52.341122 477.825958,37.366421 498.055206,20.055927 
	C504.532440,14.513234 509.754974,7.791368 515.733521,1.264747 
	C517.066711,1.000000 518.133362,1.000000 519.600037,1.000000 
	C521.949280,3.301162 520.714539,5.302956 519.463684,7.360488 
	C514.358887,15.757483 507.056519,22.207352 499.773407,28.470594 
	C481.733276,43.984604 462.177399,57.632423 443.977020,72.960930 
	C434.805939,80.684906 425.881622,88.719711 419.063782,98.738998 
	C414.221832,105.854568 409.909058,113.140533 412.270935,122.362411 
	C413.164032,125.849342 415.214111,128.683487 417.192108,131.558716 
	C424.348755,141.961456 428.858185,153.402878 428.820160,166.059265 
	C428.766632,183.884232 419.961426,198.446960 402.327637,205.108383 
	C386.313599,211.157928 369.951965,210.092621 353.635315,206.489929 
	C329.970337,201.264709 308.341583,191.076965 287.429962,179.112396 
	C268.894653,168.507416 251.859726,155.663773 234.083054,143.928879 
	C218.238083,133.469147 202.128479,123.308243 183.782974,117.633888 
	C177.156281,115.584221 170.374527,113.627228 163.221786,115.199814 
	C159.942108,115.920876 156.852173,117.002090 153.509995,119.157265 
	C165.704147,115.966995 176.893356,118.476547 187.706985,122.445305 
	C209.915955,130.596329 229.863251,142.990799 249.129974,156.504608 
	C272.046387,172.578354 295.126770,188.386826 320.421387,200.585876 
	C341.385376,210.696350 363.091461,218.698883 386.503143,220.499985 
	C401.839539,221.679840 416.704834,219.202652 428.567627,208.483505 
	C440.334320,197.851196 441.804016,184.100555 438.094818,169.396347 
	C436.156891,161.713760 432.960175,154.484360 428.210175,148.232483 
	C417.777649,134.501389 419.730377,120.934601 428.043304,107.362358 
	C435.532043,95.135765 446.060333,85.533791 456.662720,76.188011 
	C478.262634,57.148090 502.264679,41.062927 523.961548,22.124010 
	C529.490234,17.298088 534.525574,11.962465 538.816650,5.982534 
	C540.103516,4.189225 541.570251,2.656905 543.720886,1.252124 
	C544.750000,1.000000 545.500000,1.000000 546.625000,1.000000 
	C548.680847,2.786949 548.111511,4.662729 547.223328,6.554435 
	C545.361206,10.520658 542.616882,13.835633 539.660522,17.022900 
	C526.346863,31.376305 510.697845,42.978466 495.344147,54.954639 
	C478.690826,67.944496 461.667877,80.527649 446.951202,95.807129 
	C440.699005,102.298447 435.110779,109.301483 431.296021,117.598106 
	C427.428162,126.010170 427.708344,133.883682 433.160767,141.633957 
	C439.730103,150.972031 444.653687,161.065292 446.538422,172.516876 
	C451.096466,200.211166 435.706085,220.172607 410.574921,226.080292 
	C391.168335,230.642273 372.149261,227.458511 353.533508,221.746262 
	C321.714355,211.982529 293.023865,195.876053 265.665070,177.235611 
	C249.025391,165.898438 232.809341,153.932571 215.271820,143.944016 
	C201.033829,135.834732 186.485474,128.572708 170.137131,125.732147 
	C163.426117,124.566086 157.011017,125.313324 150.929688,128.786179 
	C179.224915,125.850899 202.146957,139.466446 225.122177,152.679977 
	C242.602036,162.732986 258.714966,174.870895 275.284668,186.311630 
	C286.380463,193.972824 297.832367,201.122375 309.666962,207.585327 
	C332.227783,219.905914 355.439209,230.701157 380.745087,236.246780 
	C395.663269,239.515991 410.580292,240.765457 425.656250,236.947647 
	C445.100616,232.023621 457.088745,218.978989 458.462616,199.090683 
	C459.270691,187.393341 455.135681,176.472855 449.376007,166.317337 
	C447.822662,163.578491 446.070679,160.944809 444.204590,158.376282 
	C436.898865,148.320328 436.309937,137.405731 440.967255,126.200638 
	C444.769592,117.052467 450.476410,109.139969 457.302582,101.891510 
	C476.346283,81.669731 498.572357,65.247704 520.343628,48.253189 
	C532.137878,39.046726 544.074158,29.994577 554.813354,19.503948 
	C559.243530,15.176326 563.185791,10.470924 566.603699,5.333855 
	C567.651855,3.758458 568.867615,2.486355 570.720947,1.252486 
	C571.750000,1.000000 572.500000,1.000000 573.625000,1.000000 
	C576.060425,3.371103 575.011719,5.611557 573.759583,7.886310 
	C567.931091,18.474535 558.928589,26.239647 550.053650,34.005062 
	C526.750916,54.394527 500.868561,71.609596 477.759644,92.226776 
	C467.958313,100.971291 458.584045,110.248596 451.683746,121.679482 
	C444.526306,133.536377 443.290009,144.585342 451.910797,155.940781 
	C460.768036,167.607681 465.583557,181.192734 465.970215,195.851379 
	C466.469543,214.782532 457.282867,231.530350 439.267517,240.204025 
	C423.812561,247.644958 407.449493,247.463455 391.275421,245.540085 
	C361.372589,241.984177 334.472748,229.533966 308.239502,215.371597 
	C283.245239,201.878067 260.596344,184.852631 237.041962,169.182281 
	C220.519684,158.190277 203.531525,147.993088 184.820450,141.052551 
	C175.415054,137.563782 165.868378,134.843643 155.612625,136.139389 
	C151.891602,136.609512 148.476532,137.687485 145.330582,139.908646 
	C149.864655,138.815765 154.453629,138.716370 159.061844,138.786835 
	C163.757080,138.858627 168.321121,139.756821 172.848740,140.858292 
	C177.541656,142.000000 182.119278,143.527191 186.637604,145.239700 
	C190.999588,146.892944 195.305496,148.683945 199.509552,150.693481 
	C223.037933,161.940048 244.695633,176.250153 265.908844,191.292633 
	C301.376556,216.443176 338.299713,238.902359 380.364471,251.428375 
	C400.833160,257.523560 421.632050,260.722321 442.852539,255.071701 
	C470.330841,247.754715 481.942047,224.794952 474.929810,197.904892 
	C472.513031,188.637253 468.394104,180.089310 462.759735,172.330276 
	C451.945160,157.437759 453.487640,142.499161 462.567413,127.585060 
	C473.215942,110.094223 488.374115,96.836113 503.891479,83.934319 
	C524.495850,66.803001 546.374207,51.274670 566.909973,34.072971 
	C577.216797,25.439503 587.611389,16.693335 594.176514,4.522534 
	C594.927246,3.130895 596.225037,2.371560 597.720825,1.252631 
	C598.750000,1.000000 599.500000,1.000000 600.625000,1.000000 
z"/>
<path fill="#000000" opacity="1.000000" stroke="none" 
	d="
M597.531372,1.000000 
	C596.035767,8.343942 591.211487,13.942442 586.186707,19.202024 
	C572.901978,33.107567 557.449646,44.482719 542.386841,56.346081 
	C528.294861,67.444878 513.949097,78.225616 500.334198,89.959366 
	C486.740631,101.674728 473.735077,113.752449 464.281494,129.200500 
	C456.676819,141.627289 454.271637,156.600494 463.773743,169.581451 
	C470.987305,179.435989 476.271637,190.336868 478.289337,202.637268 
	C480.835815,218.161362 478.405273,232.471588 467.258179,244.053635 
	C458.802032,252.839691 447.828613,257.257812 435.767181,259.023499 
	C409.005768,262.941071 383.958374,256.176636 359.391785,246.724060 
	C330.180023,235.484161 303.411652,219.697403 277.583923,202.199738 
	C262.292297,191.840042 247.446152,180.837555 231.707031,171.118576 
	C215.392212,161.044098 198.713852,151.632065 180.575180,145.398605 
	C168.712158,141.321808 156.326706,138.621368 143.710602,142.994446 
	C142.255707,143.498749 140.818863,144.055206 139.152512,144.668930 
	C139.807022,138.279785 144.892303,136.627579 149.417984,135.114273 
	C159.536850,131.730698 169.550705,133.691483 179.429932,136.782410 
	C196.911850,142.251953 212.773926,151.036743 228.165375,160.720016 
	C253.141388,176.433258 276.408264,194.760437 302.040527,209.456665 
	C318.647919,218.978500 335.871552,227.311707 353.870117,233.948608 
	C366.669312,238.668274 379.822296,242.718765 393.335724,243.707382 
	C410.444092,244.959015 427.830963,245.378555 443.294556,235.321228 
	C454.756775,227.866302 461.355713,217.560760 463.022949,203.958237 
	C465.335205,185.093338 458.919952,168.976028 447.786743,154.276596 
	C441.821838,146.401047 442.341064,131.615311 448.726074,121.747345 
	C458.675934,106.369904 471.980957,94.304321 485.792145,82.510521 
	C501.932220,68.728035 519.243408,56.478977 535.651550,43.056713 
	C545.361511,35.113750 554.776367,26.934069 563.539490,17.977385 
	C568.138062,13.277298 571.766052,7.977530 573.993408,1.379181 
	C581.687561,1.000000 589.375183,1.000000 597.531372,1.000000 
z"/>
<path fill="#000000" opacity="1.000000" stroke="none" 
	d="
M570.531372,1.000000 
	C569.403931,7.653740 564.737122,12.408302 560.308350,17.052473 
	C546.255798,31.788412 529.737000,43.628166 513.750244,56.115978 
	C502.431458,64.957542 491.096344,73.802681 480.163757,83.157837 
	C473.082550,89.217308 466.757050,95.978767 460.110748,102.440460 
	C450.097198,112.175896 442.413635,123.446503 440.354767,137.521912 
	C439.204926,145.382965 442.481415,152.389221 447.197144,158.744873 
	C454.076874,168.017044 458.206635,178.409683 460.086823,189.871582 
	C462.697144,205.784378 457.751312,218.805634 446.013367,229.415970 
	C439.341278,235.447067 431.127930,238.308823 422.420532,240.018753 
	C398.078491,244.798965 375.320984,238.240021 352.772705,230.321777 
	C337.765594,225.051743 323.650604,217.784317 309.714752,210.226868 
	C291.175110,200.172775 273.723755,188.368607 256.606720,176.081436 
	C239.868927,164.066513 222.543442,152.981659 204.152618,143.695602 
	C193.031342,138.080139 181.512131,132.945694 169.079666,131.292404 
	C162.344055,130.396683 155.210098,129.865509 148.465027,132.286682 
	C147.353500,132.685654 146.155472,133.567444 145.334885,132.515839 
	C144.351990,131.256241 145.356705,130.116425 146.361816,129.130539 
	C153.326324,122.299164 162.096588,121.945793 170.698685,123.474495 
	C196.710480,128.097076 218.325897,142.407623 239.816895,156.534851 
	C257.149506,167.928543 273.633545,180.617981 291.597198,191.067245 
	C315.039612,204.703461 339.354065,216.494797 365.866882,222.805878 
	C375.203400,225.028320 384.909576,226.510422 394.618073,225.939758 
	C409.901245,225.041397 424.211121,221.672287 435.097870,209.491348 
	C444.265869,199.233536 446.215729,187.129562 444.557800,174.268646 
	C442.977386,162.008591 437.262756,151.341248 430.159790,141.297043 
	C424.974274,133.964264 424.949738,125.936676 428.630005,117.832596 
	C435.097321,103.591324 445.869690,92.967834 457.409729,82.845009 
	C465.409058,75.828026 473.615112,69.096405 481.981232,62.540157 
	C491.977478,54.706387 501.921417,46.805290 511.960724,39.027191 
	C523.448608,30.126745 534.229431,20.482590 543.307434,9.093173 
	C544.977966,6.997309 545.783264,4.211771 546.993958,1.372282 
	C554.687561,1.000000 562.375183,1.000000 570.531372,1.000000 
z"/>
<path fill="#000000" opacity="1.000000" stroke="none" 
	d="
M543.531372,1.000000 
	C542.460449,6.966330 538.050903,11.072079 534.099243,15.257652 
	C520.662292,29.490007 504.749817,40.858894 489.404633,52.858524 
	C479.653992,60.483349 469.874481,68.054253 460.360779,75.986198 
	C453.326508,81.850975 447.101410,88.482552 440.665070,94.914940 
	C431.760040,103.814522 424.987122,114.155037 423.191925,126.830055 
	C422.198090,133.846909 425.383942,140.156067 429.379944,145.903870 
	C436.847443,156.645004 441.788483,168.194412 442.076263,181.597183 
	C442.469482,199.910233 431.815002,212.987350 415.902924,218.886673 
	C402.738525,223.767319 389.259186,223.495514 375.384918,221.310989 
	C352.096802,217.644226 330.892151,208.656967 310.257538,197.987106 
	C288.200134,186.581482 267.912994,172.344299 247.561646,158.189407 
	C227.869354,144.492874 207.608429,131.659592 184.630264,123.947777 
	C175.132294,120.760124 165.520782,118.575996 155.359161,120.886772 
	C153.318878,121.350739 151.638611,122.722664 149.456238,123.012642 
	C150.291916,117.734741 153.997223,115.660172 158.146561,114.033684 
	C167.040344,110.547432 175.892517,112.492592 184.310364,115.247520 
	C206.424393,122.484840 225.736603,135.140259 244.653183,148.277847 
	C260.375519,159.197006 276.113037,170.021927 292.810577,179.443237 
	C308.667664,188.390381 325.121124,195.826935 342.521484,201.200439 
	C356.071716,205.384949 369.907715,208.058472 384.067749,206.874908 
	C397.128113,205.783234 409.515991,202.112503 418.154602,191.233902 
	C422.514069,185.744003 425.269684,179.427383 426.067230,172.211075 
	C427.763153,156.866516 422.791107,143.691772 414.157776,131.363159 
	C406.348328,120.211151 407.704132,112.459595 414.948120,100.748901 
	C422.609772,88.363052 433.611237,78.975365 444.665771,69.581001 
	C457.851807,58.375252 471.846588,48.237175 485.283264,37.373379 
	C494.386780,30.013039 503.308563,22.526274 511.443115,14.099938 
	C514.987488,10.428418 517.813477,6.321236 519.996887,1.368437 
	C527.687561,1.000000 535.375183,1.000000 543.531372,1.000000 
z"/>
<path fill="#000000" opacity="1.000000" stroke="none" 
	d="
M515.531372,1.000000 
	C516.160889,5.856058 512.490295,8.664086 509.719208,11.620998 
	C498.589386,23.497175 485.562927,33.172390 472.750702,43.144798 
	C461.426361,51.959103 449.906311,60.555161 439.185028,70.169525 
	C430.089447,78.326035 421.163635,86.542961 413.985352,96.502174 
	C409.936371,102.119759 407.355286,108.434067 406.176483,115.117058 
	C405.223267,120.521393 406.832428,125.931572 410.022827,130.390991 
	C417.334717,140.611374 422.938324,151.727859 423.722443,164.220947 
	C424.447571,175.774506 420.789368,186.442642 411.012817,193.971481 
	C397.455078,204.412155 382.056030,205.118912 365.829895,203.123230 
	C339.480469,199.882477 316.297668,188.656479 293.400085,176.194855 
	C273.400696,165.310486 255.431717,151.430222 236.449265,139.051971 
	C220.182037,128.444275 203.689346,118.141212 184.871094,112.409721 
	C174.832443,109.352249 164.747635,108.765282 154.595337,111.731773 
	C155.273209,107.104858 158.310425,104.423004 163.779678,102.964790 
	C173.273697,100.433525 182.211746,102.783020 190.930420,106.046059 
	C213.796677,114.603966 233.420593,128.770248 253.142960,142.697235 
	C270.027374,154.620193 287.760468,165.118408 306.509155,173.739883 
	C327.123840,183.219376 348.559143,190.061066 371.685333,187.928360 
	C397.163422,185.578781 412.820282,166.483429 406.698700,140.271255 
	C405.016663,133.068756 402.004761,126.379433 397.735809,120.537918 
	C388.335083,107.674248 391.643280,99.451096 399.092224,88.674294 
	C409.731720,73.281479 424.815186,62.338066 439.346375,50.840931 
	C455.657104,37.935791 472.874725,26.050322 487.000549,10.535986 
	C489.428497,7.869374 491.084656,4.723381 492.996887,1.364047 
	C500.354248,1.000000 507.708496,1.000000 515.531372,1.000000 
z"/>
<path fill="#000000" opacity="1.000000" stroke="none" 
	d="
M360.246765,185.289612 
	C342.090179,184.756866 325.632599,178.753876 309.492157,171.794312 
	C282.359406,160.095016 258.752472,142.582870 234.470428,126.137215 
	C219.722870,116.149025 204.387680,106.942223 187.164597,101.656975 
	C179.008057,99.153976 170.657104,97.369476 162.163040,100.392090 
	C161.566452,100.604378 161.055725,101.226089 160.455475,100.649643 
	C159.776566,99.997635 159.940491,99.169273 160.267258,98.366028 
	C161.464447,95.423203 163.968323,94.063530 166.725662,93.000717 
	C176.437622,89.257248 185.503418,92.374084 194.415085,95.857475 
	C214.246658,103.609261 231.398727,115.889404 248.655655,128.050568 
	C262.037537,137.480972 275.975250,146.090027 290.717682,153.299500 
	C305.157593,160.361069 320.116455,166.392380 335.990784,168.739517 
	C350.375580,170.866440 364.950928,170.859818 377.569305,161.168533 
	C384.281311,156.013504 387.938721,149.309174 388.959412,141.127365 
	C390.511505,128.685745 386.982880,117.349556 379.690155,107.499512 
	C373.246460,98.796158 374.207581,90.521721 379.434662,82.226143 
	C385.762787,72.183220 394.540558,64.401817 403.522797,56.707890 
	C415.060272,46.825222 427.277557,37.842873 439.177124,28.446714 
	C446.191071,22.908363 452.629333,16.822407 458.981628,10.584629 
	C461.704468,7.910865 463.865051,4.898331 465.908295,1.339888 
	C473.354248,1.000000 480.708496,1.000000 488.531372,1.000000 
	C489.361023,5.046072 485.989685,7.082024 483.862518,9.433752 
	C473.370483,21.033115 460.751587,30.244720 448.483337,39.817814 
	C438.602570,47.527927 428.642975,55.118633 419.106934,63.275909 
	C410.698120,70.468918 402.523407,77.873032 396.470306,87.150803 
	C388.796570,98.912560 385.615509,108.533913 394.748627,121.614243 
	C401.116821,130.734711 405.262360,140.937805 405.060059,152.530685 
	C404.835205,165.418213 396.452454,177.336533 384.049377,181.890549 
	C378.889099,183.785233 373.516846,185.271973 367.441101,185.097153 
	C366.836456,185.249130 366.668488,185.329361 366.242584,185.302612 
	C365.545685,185.153091 365.106689,185.110535 364.341614,185.131805 
	C363.843658,185.266968 363.671844,185.338287 363.242310,185.302628 
	C362.545593,185.153091 362.106628,185.110535 361.341492,185.131805 
	C360.843323,185.266953 360.671234,185.338272 360.246765,185.289612 
z"/>
<path fill="#000000" opacity="1.000000" stroke="none" 
	d="
M461.531372,1.000000 
	C459.416107,8.211960 453.316254,12.624688 447.957214,17.261200 
	C437.628510,26.197372 426.569733,34.291428 415.789154,42.703186 
	C405.692688,50.581139 395.437378,58.340881 386.817749,67.837128 
	C380.647797,74.634552 374.692322,81.610878 372.702637,91.316933 
	C371.462708,97.365379 372.643280,102.473503 375.718414,107.012581 
	C381.560547,115.636032 385.615723,124.664902 386.710022,135.163788 
	C387.732758,144.975739 378.700348,159.127029 368.850525,163.042496 
	C350.925415,170.168045 333.557709,166.311035 316.403534,160.649506 
	C290.430634,152.077438 267.651672,137.526093 245.366241,122.005898 
	C227.715652,109.713554 210.088684,97.241409 189.066971,90.914650 
	C180.739090,88.408249 172.521866,87.528023 163.928818,90.622040 
	C169.203812,81.698730 175.597260,79.367874 185.172012,81.557266 
	C204.633041,86.007286 220.603409,97.070435 236.561310,108.135155 
	C252.716476,119.336678 269.040680,130.244873 286.964844,138.443192 
	C303.036346,145.794128 319.618225,151.686188 337.638641,150.927902 
	C352.533875,150.301086 367.029602,143.398148 370.520874,126.000366 
	C372.407654,116.598137 369.510895,107.971611 365.193909,99.817314 
	C363.853973,97.286301 361.982788,94.923752 360.378601,92.512947 
	C356.605804,86.843109 357.520844,80.696968 360.583832,74.932854 
	C365.962708,64.810608 374.510437,57.388042 382.995483,50.126324 
	C392.882751,41.664494 403.405945,33.947350 413.618225,25.862936 
	C418.894562,21.685978 424.208191,17.550449 428.869293,12.651314 
	C432.278809,9.067685 436.058472,5.825211 438.918152,1.334741 
	C446.354248,1.000000 453.708496,1.000000 461.531372,1.000000 
z"/>
<path fill="#000000" opacity="1.000000" stroke="none" 
	d="
M433.531372,1.000000 
	C434.914154,3.295959 433.058533,4.348320 431.852142,5.630336 
	C421.698669,16.420265 409.543335,24.822117 398.031219,33.998665 
	C384.749512,44.585781 370.550903,54.289257 360.940979,68.712395 
	C356.706238,75.068169 353.241394,81.935654 355.929474,90.197525 
	C356.872925,93.097260 358.707458,95.290794 360.240692,97.750900 
	C365.767761,106.619156 369.445679,115.713158 367.213135,126.698265 
	C364.749847,138.818954 354.657623,144.806580 344.718323,146.936005 
	C328.530975,150.404037 313.373566,145.701370 298.489990,140.081680 
	C273.995636,130.833206 252.887268,115.708641 231.541977,101.028976 
	C219.621506,92.831001 207.291443,85.396362 193.458221,80.858215 
	C183.993881,77.753342 180.322693,76.763237 169.272491,79.331863 
	C171.397873,72.137802 178.242737,68.523743 185.479065,69.670387 
	C204.319351,72.655754 219.192657,83.568619 234.194870,93.931824 
	C246.494690,102.428268 258.874451,110.823349 272.202759,117.440834 
	C284.757294,123.674149 297.827545,128.789902 312.201355,130.285904 
	C319.088257,131.002655 325.516052,130.615082 331.938965,128.898193 
	C346.820709,124.920219 354.571045,109.352478 349.498840,94.982727 
	C347.727234,89.963737 345.685760,85.220474 342.533875,80.709328 
	C337.265198,73.168518 339.101318,65.457603 346.846771,56.826080 
	C357.066925,45.436790 369.036407,35.968712 381.305054,26.783953 
	C390.078430,20.215858 398.969330,13.573814 406.273956,5.217022 
	C407.227509,4.126118 407.976471,2.856367 408.910095,1.334731 
	C417.020905,1.000000 425.041809,1.000000 433.531372,1.000000 
z"/>
<path fill="#000000" opacity="1.000000" stroke="none" 
	d="
M404.531342,1.000000 
	C404.550873,4.547544 401.474518,6.149514 399.235260,8.123939 
	C389.216461,16.957844 378.319672,24.717270 367.925751,33.087566 
	C358.003113,41.078346 347.719604,48.818928 340.647583,59.804142 
	C336.439606,66.340515 335.958710,77.070000 340.949738,84.005333 
	C348.991394,95.179710 351.189087,106.060410 343.940308,117.037201 
	C339.924500,123.118301 333.668182,125.662064 326.738403,127.027550 
	C311.564484,130.017517 297.821198,124.822922 284.175446,119.542953 
	C262.016510,110.968964 243.560974,96.117653 223.874451,83.363884 
	C214.070786,77.012657 203.938934,71.370796 192.657074,67.980331 
	C186.840790,66.232399 180.992157,67.306770 175.162140,67.134537 
	C176.323135,58.099976 185.343201,56.267899 194.892395,59.447460 
	C207.784027,63.739948 219.134338,70.853706 230.171967,78.625000 
	C248.081451,91.234612 266.404175,103.157532 288.049103,108.539864 
	C296.286377,110.588188 304.883148,111.321007 313.013672,109.300858 
	C328.986481,105.332153 335.046600,90.845764 328.225433,75.694679 
	C327.224823,73.472168 326.433807,71.047546 324.974243,69.157951 
	C318.306610,60.526020 320.048737,56.566906 327.617096,47.162533 
	C336.607178,35.991570 348.572083,27.841690 359.794434,18.993389 
	C366.555756,13.662425 373.993347,9.019673 378.997589,1.355129 
	C387.354218,1.000000 395.708466,1.000000 404.531342,1.000000 
z"/>
<path fill="#000000" opacity="1.000000" stroke="none" 
	d="
M374.531372,1.000000 
	C372.921417,5.445769 368.717896,7.920514 365.206055,10.844184 
	C353.052673,20.962103 339.732788,29.691278 328.595642,41.010799 
	C324.421326,45.253445 320.960358,50.104687 318.894501,55.977974 
	C316.341858,63.235180 321.031097,67.963127 323.903320,73.398483 
	C329.504700,83.998466 330.287476,94.097237 321.787140,101.487328 
	C315.484497,106.966774 307.669373,108.063042 299.114899,107.273895 
	C283.801331,105.861229 270.382538,99.600098 257.244446,92.555679 
	C245.828979,86.434898 235.620682,78.338440 224.746155,71.323410 
	C214.301880,64.585930 203.797226,57.927162 191.219513,55.498772 
	C187.520309,54.784557 184.137085,55.284126 179.709122,56.268909 
	C182.719589,53.208431 181.696259,48.399330 186.077194,47.494400 
	C190.937439,46.490467 195.628189,46.882156 200.463913,48.749813 
	C215.199493,54.440998 227.098541,64.692986 240.290802,72.848251 
	C252.622452,80.471504 265.379639,87.371368 279.764587,89.650826 
	C287.826569,90.928329 296.718140,91.634384 303.785583,85.637123 
	C313.029602,77.792831 312.810425,67.061935 306.447845,56.036366 
	C301.778656,47.945175 301.979523,44.489197 307.934814,37.498417 
	C316.809601,27.080517 328.343323,19.843197 338.605347,11.090484 
	C342.326447,7.916687 346.105835,4.811206 349.929321,1.337279 
	C358.020905,1.000000 366.041809,1.000000 374.531372,1.000000 
z"/>
<path fill="#000000" opacity="1.000000" stroke="none" 
	d="
M43.541931,1.000000 
	C50.728901,12.859956 49.882267,25.580976 48.273827,38.397675 
	C46.219612,54.766491 40.851254,70.226028 34.910564,85.458443 
	C30.619816,96.460274 25.854374,107.266182 23.545116,118.918541 
	C20.393747,134.820145 21.604336,150.009201 33.152992,162.438324 
	C40.753059,170.617828 51.072777,174.409805 61.793797,177.015945 
	C76.560799,180.605606 91.587357,180.092743 106.581802,179.934784 
	C109.584633,179.903152 112.578331,179.004852 115.620743,178.498764 
	C114.120216,190.357224 107.227699,192.978989 97.096863,192.915253 
	C93.416252,192.892105 89.927063,194.041382 86.318466,193.974869 
	C69.293373,193.661133 52.298027,192.720718 36.376175,185.928421 
	C20.293777,179.067627 9.656017,166.424728 8.957886,147.767685 
	C8.350468,131.534882 13.512920,116.649048 19.545706,102.054070 
	C27.731798,82.249626 34.860909,62.083241 37.754684,40.848434 
	C39.548164,27.687708 39.640209,14.169558 33.008362,1.380156 
	C36.361286,1.000000 39.722576,1.000000 43.541931,1.000000 
z"/>
<path fill="#000000" opacity="1.000000" stroke="none" 
	d="
M28.545891,1.000000 
	C32.792526,6.473135 34.321125,12.688506 35.009094,19.192341 
	C37.607239,43.754517 29.686518,66.301544 21.598057,88.790329 
	C16.686993,102.444824 10.103701,115.517456 7.495313,129.964493 
	C4.217392,148.119858 5.105356,165.468262 19.631645,178.931046 
	C28.725124,187.358780 40.308605,191.378113 52.349766,194.002899 
	C62.180866,196.145905 72.325951,196.905609 82.130669,196.568100 
	C91.536713,196.244308 101.494499,197.894577 110.666573,193.150482 
	C108.518967,202.625168 100.998451,208.115723 91.636627,209.164978 
	C81.517883,210.299088 71.393242,210.449265 61.362171,209.830383 
	C44.117470,208.766495 27.077883,206.177078 12.261065,196.044724 
	C8.218278,193.280106 4.137284,190.606003 1.339063,186.083557 
	C1.000000,163.645767 1.000000,141.291550 1.000000,118.468658 
	C2.894984,107.307922 8.282045,97.819946 11.489468,87.574570 
	C16.527824,71.480682 21.216093,55.418350 22.759428,38.420616 
	C23.825836,26.675581 22.160339,15.774521 18.240210,4.946321 
	C17.812372,3.764553 17.741199,2.696099 18.739351,1.320530 
	C22.030594,1.000000 25.061186,1.000000 28.545891,1.000000 
z"/>
<path fill="#000000" opacity="1.000000" stroke="none" 
	d="
M58.541931,1.000000 
	C64.371315,11.133610 63.687340,22.079174 62.517162,32.812283 
	C59.957809,56.287128 48.896893,77.240211 41.918167,99.413086 
	C38.717098,109.583565 37.519337,119.810547 39.745968,130.468536 
	C42.794140,145.058884 52.705322,152.927399 65.588860,157.956100 
	C79.561691,163.410004 94.289024,164.291016 109.065239,163.865799 
	C113.267380,163.744858 117.451683,162.628754 121.637756,163.205170 
	C122.245384,164.719955 121.128113,165.566116 120.722641,166.549866 
	C117.098900,175.341522 114.506058,177.032837 104.716034,176.991745 
	C93.622093,176.945190 82.466934,177.753601 71.466324,175.940475 
	C56.616825,173.492996 42.185745,169.428665 32.528206,156.829803 
	C25.728502,147.959167 24.008255,137.328644 25.382740,126.198669 
	C28.201914,103.370232 40.098801,83.491882 46.237286,61.715836 
	C50.558578,46.386196 52.950226,31.000067 51.841415,15.189181 
	C51.523323,10.653336 49.341167,6.248217 48.006851,1.391579 
	C51.361286,1.000000 54.722576,1.000000 58.541931,1.000000 
z"/>
<path fill="#000000" opacity="1.000000" stroke="none" 
	d="
M343.531372,1.000000 
	C342.550323,6.275703 337.435883,7.884764 333.836060,10.933684 
	C325.485504,18.006308 316.245972,24.016773 308.582581,31.916506 
	C305.967072,34.612679 303.865692,37.701973 301.972687,40.966759 
	C298.804840,46.430218 299.542969,51.404205 302.943817,56.519646 
	C306.425446,61.756584 308.836609,67.582466 307.872467,74.007202 
	C306.903564,80.463890 300.005585,86.352470 293.102386,86.963173 
	C282.619385,87.890556 272.729187,85.563934 263.031830,81.583710 
	C246.352554,74.737762 232.535858,63.277515 217.333954,54.055611 
	C207.706894,48.215580 197.823990,41.859917 185.471497,44.427341 
	C188.194656,36.922073 190.952728,33.526321 198.923737,35.909336 
	C209.417282,39.046486 218.101913,45.246235 226.810013,51.396488 
	C238.823166,59.881020 251.591263,66.815903 266.034332,69.783752 
	C271.156708,70.836342 276.687622,70.441948 281.971893,68.128998 
	C289.622498,64.780289 293.182922,55.575199 289.224915,46.687920 
	C288.365814,44.758915 287.733612,42.606178 286.431580,41.020760 
	C282.909729,36.732433 284.446106,32.933376 287.247284,29.313221 
	C293.205139,21.613462 301.186676,16.107845 308.678894,10.100912 
	C312.114960,7.346023 315.808044,4.914593 318.912964,1.329858 
	C327.020905,1.000000 335.041809,1.000000 343.531372,1.000000 
z"/>
<path fill="#000000" opacity="1.000000" stroke="none" 
	d="
M73.541931,1.000000 
	C79.258453,15.697591 76.862724,30.128761 73.196556,44.769447 
	C69.400581,59.928528 62.219387,73.801277 57.688686,88.654343 
	C54.607563,98.755234 53.447403,109.076256 56.256775,119.183762 
	C60.119621,133.081421 70.861763,140.138489 84.068413,143.953659 
	C98.262444,148.054077 112.845833,146.912201 127.331886,146.953430 
	C128.385468,146.956421 129.440704,146.388489 130.713364,146.023392 
	C129.050644,149.820831 127.655556,153.429581 125.899551,156.853210 
	C124.905556,158.791183 122.626450,159.668961 120.685486,159.895309 
	C100.755875,162.219452 80.915428,161.830124 62.325710,153.502716 
	C50.984032,148.422119 43.582733,139.553879 41.879097,126.336861 
	C39.983006,111.626724 44.633972,98.481857 49.959942,85.370720 
	C57.045895,67.926949 63.400757,50.189556 65.771423,31.478582 
	C67.018578,21.635218 66.856522,11.422423 63.010071,1.403723 
	C66.361290,1.000000 69.722572,1.000000 73.541931,1.000000 
z"/>
<path fill="#000000" opacity="1.000000" stroke="none" 
	d="
M88.541931,1.000000 
	C89.121437,5.076698 91.045898,8.773424 91.094887,12.953635 
	C91.272163,28.079535 87.286453,42.297215 81.899483,56.155556 
	C77.679878,67.010757 72.399185,77.676033 71.225281,89.273415 
	C69.204132,109.241081 76.011772,121.214630 97.116615,127.816818 
	C108.447144,131.361343 120.448326,131.368942 132.330292,131.070160 
	C134.469894,131.016357 136.284180,129.064377 138.508102,130.271225 
	C132.659210,142.706238 134.672241,144.421509 118.458527,144.098816 
	C117.837303,144.250046 117.669029,144.329819 117.242722,144.302612 
	C116.544746,144.153076 116.104820,144.110519 115.338028,144.131775 
	C113.959930,144.652298 112.856674,144.468842 111.378166,144.327362 
	C110.548889,144.153061 110.108978,144.110519 109.342224,144.131805 
	C108.843300,144.266968 108.671227,144.338287 108.246727,144.289825 
	C96.300331,144.085648 84.954498,142.317719 74.483795,136.788925 
	C63.769596,131.131561 58.540413,122.179176 57.915249,110.026306 
	C57.212643,96.368088 62.108669,84.246620 66.969460,71.988380 
	C74.233467,53.669575 80.780930,35.160545 80.012711,14.980530 
	C79.837746,10.384337 78.941444,5.967342 77.684433,1.333343 
	C81.361290,1.000000 84.722572,1.000000 88.541931,1.000000 
z"/>
<path fill="#000000" opacity="1.000000" stroke="none" 
	d="
M103.539368,1.000000 
	C107.014511,8.969303 106.066406,16.974379 104.513367,25.083614 
	C101.725578,39.640102 95.215721,52.924057 90.655998,66.869286 
	C88.102753,74.677994 86.872665,82.703812 89.371239,90.889748 
	C93.030022,102.876770 102.381882,108.049019 113.484810,110.921272 
	C119.504761,112.478592 125.672737,113.308640 131.967285,113.037643 
	C136.883270,112.826004 141.815689,112.995255 147.193130,112.995255 
	C145.629242,116.696022 144.317703,119.782257 143.020157,122.874374 
	C141.271500,127.041512 137.322632,127.797020 133.718094,127.887863 
	C120.116447,128.230652 106.636826,128.148209 93.457825,123.267944 
	C76.880798,117.129364 72.091446,102.746689 74.463997,88.059685 
	C76.988312,72.433098 85.133308,58.664761 89.220497,43.532764 
	C92.086052,32.923588 94.575821,22.329952 93.974075,11.254487 
	C93.798897,8.030162 93.117661,4.873962 92.009529,1.411270 
	C95.692909,1.000000 99.385818,1.000000 103.539368,1.000000 
z"/>
<path fill="#000000" opacity="1.000000" stroke="none" 
	d="
M312.531372,1.000000 
	C311.874176,5.897311 307.054260,7.122356 303.890656,9.924252 
	C297.425720,15.650001 289.885712,20.154345 284.921021,27.546600 
	C281.416046,32.765369 280.265259,37.710491 283.982910,43.497520 
	C286.633606,47.623711 289.422119,51.955063 287.177734,57.568123 
	C285.033051,62.931854 280.242584,66.738945 274.538147,67.030128 
	C261.536346,67.693794 250.364227,62.365803 239.687790,56.032677 
	C230.507706,50.587170 222.013657,43.986336 212.841675,38.525566 
	C206.366638,34.670494 199.277802,31.822811 191.462967,32.141201 
	C194.509125,23.238451 199.645050,21.989912 208.768372,27.139360 
	C219.080887,32.960022 228.112869,40.837807 239.058945,45.607025 
	C244.301025,47.891010 249.711105,49.533989 255.389740,49.968132 
	C267.223663,50.872875 274.673309,41.773361 268.642212,29.210352 
	C265.712219,23.107079 265.499298,20.696154 270.466919,16.209368 
	C276.246002,10.989695 282.675659,6.490376 288.911499,1.339220 
	C296.687592,1.000000 304.375153,1.000000 312.531372,1.000000 
z"/>
<path fill="#000000" opacity="1.000000" stroke="none" 
	d="
M119.539368,1.000000 
	C122.688362,17.165092 116.633324,31.613974 110.927292,46.057327 
	C107.393257,55.002827 104.740288,64.108009 106.109291,73.707565 
	C107.720917,85.008408 115.601959,90.918579 129.344101,93.979965 
	C137.003006,95.686180 144.793823,95.417130 152.544571,94.943619 
	C156.902573,94.677383 156.360901,96.589691 154.921936,99.249596 
	C154.765900,99.538017 154.504501,99.786613 154.412796,100.090187 
	C151.502319,109.724014 144.279938,110.475372 135.651764,110.185486 
	C126.113106,109.865005 116.813507,109.336624 107.709396,106.077606 
	C96.050957,101.904198 89.377708,88.893707 91.547455,76.645508 
	C94.172989,61.824409 101.787575,48.791683 105.296463,34.354279 
	C107.912598,23.590067 110.811882,12.870655 107.701225,1.364538 
	C111.692909,1.000000 115.385818,1.000000 119.539368,1.000000 
z"/>
<path fill="#000000" opacity="1.000000" stroke="none" 
	d="
M134.539368,1.000000 
	C136.310028,15.030852 130.904129,27.506531 126.012726,40.120682 
	C123.437866,46.760826 121.719513,53.742065 123.407265,60.756104 
	C125.987900,71.480804 134.873672,74.922714 144.360001,76.901405 
	C151.084427,78.304016 157.972382,78.446625 164.939835,77.709221 
	C163.689697,80.635651 162.185959,83.355042 161.352020,86.266304 
	C159.303680,93.416908 152.838028,92.501793 148.085831,92.751823 
	C137.121918,93.328674 126.185799,91.797356 116.620277,85.779572 
	C110.390457,81.860321 108.306915,73.587975 108.637886,66.599808 
	C109.168396,55.398628 114.599052,45.809258 118.201591,35.649540 
	C121.213547,27.155321 122.403473,18.370035 123.903130,9.616528 
	C124.335876,7.090555 122.391090,4.575152 122.997894,1.434500 
	C126.692909,1.000000 130.385818,1.000000 134.539368,1.000000 
z"/>
<path fill="#000000" opacity="1.000000" stroke="none" 
	d="
M56.246674,226.289856 
	C42.029648,226.081268 28.290825,224.486374 14.975761,220.043365 
	C10.366640,218.505386 5.876380,216.702911 1.346098,214.100739 
	C1.000000,206.979050 1.000000,199.958099 1.000000,192.468567 
	C5.216060,192.951355 7.210624,196.929962 10.641636,199.053497 
	C20.989336,205.457932 32.344860,208.890182 44.141678,210.934113 
	C56.500755,213.075455 69.056252,213.681076 81.537598,212.845963 
	C89.301506,212.326508 97.486000,212.895493 104.762726,208.547699 
	C100.786949,216.854141 95.289452,223.161850 85.638237,225.084457 
	C80.061783,226.195328 74.503693,225.856842 68.467102,226.098511 
	C67.837379,226.249878 67.669106,226.329727 67.242752,226.302628 
	C66.544693,226.153107 66.104729,226.110550 65.337860,226.131790 
	C63.304668,226.754089 61.553257,226.423904 59.404709,226.327362 
	C58.549061,226.153061 58.109104,226.110519 57.342270,226.131821 
	C56.843307,226.266968 56.671219,226.338287 56.246674,226.289856 
z"/>
<path fill="#000000" opacity="1.000000" stroke="none" 
	d="
M149.539368,1.000000 
	C150.566635,11.461415 145.843353,20.531399 142.556030,30.016825 
	C140.880966,34.850140 139.362137,39.735115 140.521118,45.223026 
	C142.380585,54.027718 148.643417,57.090946 156.285019,59.028385 
	C161.826263,60.433300 167.446533,59.811699 174.028397,60.083099 
	C170.073044,64.932243 171.315353,73.004753 163.940628,74.346214 
	C153.117905,76.314880 142.241959,75.393051 132.822739,69.118073 
	C125.485176,64.229889 124.309944,55.900665 127.689713,44.663898 
	C130.246475,36.163387 134.320145,28.236145 136.367081,19.508026 
	C137.746689,13.625263 137.953476,7.832249 137.997894,1.464263 
	C141.692902,1.000000 145.385818,1.000000 149.539368,1.000000 
z"/>
<path fill="#000000" opacity="1.000000" stroke="none" 
	d="
M3.729858,1.329818 
	C7.030593,1.000000 10.061187,1.000000 13.545890,1.000000 
	C17.354263,2.217894 18.596033,5.082638 19.526785,8.157769 
	C22.618916,18.373938 23.842403,28.576710 22.766174,39.439011 
	C20.500252,62.308773 13.296352,83.666107 5.084349,104.829559 
	C4.469790,106.413368 4.336349,108.639847 1.360455,108.223572 
	C1.000000,100.645744 1.000000,93.291496 1.000000,85.468620 
	C3.754388,69.903999 8.289609,55.107040 9.351703,39.739445 
	C10.146435,28.240362 8.922204,16.870790 3.734879,6.294527 
	C2.952113,4.698572 2.332961,3.281304 3.729858,1.329818 
z"/>
<path fill="#000000" opacity="1.000000" stroke="none" 
	d="
M164.539368,1.000000 
	C163.978973,7.237768 161.978333,13.189535 159.469711,18.954266 
	C157.614899,23.216511 157.816055,27.652176 158.072433,32.047272 
	C158.358337,36.948715 164.896912,41.616150 171.531677,41.984489 
	C173.354080,42.085663 175.192642,41.908859 177.013245,42.024891 
	C178.609665,42.126633 180.985977,41.172070 181.625229,42.620560 
	C182.441055,44.469158 181.190369,46.625107 180.045456,48.402840 
	C179.781021,48.813419 179.396149,49.165546 179.011688,49.476601 
	C176.388977,51.598579 177.552048,56.972702 172.490707,57.008896 
	C163.665771,57.072006 154.504059,58.061672 147.249359,51.615047 
	C141.179321,46.221107 142.635468,39.307331 144.814987,32.631912 
	C147.360992,24.833975 150.868011,17.372675 152.511597,9.243196 
	C153.018600,6.735512 152.696274,4.327352 152.997375,1.446692 
	C156.692902,1.000000 160.385818,1.000000 164.539368,1.000000 
z"/>
<path fill="#000000" opacity="1.000000" stroke="none" 
	d="
M281.535339,1.000000 
	C281.166229,5.468526 276.665741,6.291310 273.979065,8.900483 
	C270.130371,12.638231 265.872681,15.799236 263.827698,21.161842 
	C262.605957,24.365694 263.046112,26.778238 264.847595,29.361526 
	C267.922760,33.771252 269.469971,38.314152 265.949219,43.296890 
	C263.963165,46.107681 257.109192,47.728680 252.317169,46.698662 
	C239.974655,44.045712 229.766953,37.311729 219.637955,30.241768 
	C213.555939,25.996569 207.170456,22.106150 199.664108,20.694162 
	C200.824356,15.632759 202.639740,14.879714 207.622635,16.873343 
	C216.304092,20.346752 222.951889,27.114281 231.313766,31.147301 
	C236.898117,33.840691 242.500290,35.341995 248.697433,35.033989 
	C255.824966,34.679745 260.012726,28.080151 257.116699,21.459339 
	C253.704330,13.658132 254.244446,11.978371 261.386047,6.929842 
	C263.644073,5.333595 265.689728,3.436895 267.916290,1.338849 
	C272.356903,1.000000 276.713806,1.000000 281.535339,1.000000 
z"/>
<path fill="#000000" opacity="1.000000" stroke="none" 
	d="
M180.242599,39.302620 
	C179.239761,39.152267 178.494781,39.108891 177.381073,39.130569 
	C176.580353,39.406517 176.124634,39.494572 175.321579,39.314415 
	C166.039719,38.696732 162.299301,35.977062 160.652802,29.310026 
	C160.031143,26.792826 160.729279,24.409702 161.430618,22.420485 
	C163.831680,15.610522 166.392288,8.869886 167.993164,1.403540 
	C170.370560,1.000000 172.741104,1.000000 175.555832,1.000000 
	C175.563828,6.373236 172.562424,10.959194 171.377075,16.117416 
	C170.212784,21.184071 172.923401,26.158472 177.895538,28.094053 
	C179.444855,28.697180 181.547104,28.384329 182.438690,29.338099 
	C184.058594,31.070953 188.299576,28.225649 187.719299,31.757889 
	C187.234787,34.707233 186.239349,38.692150 181.378601,39.096874 
	C180.836426,39.249298 180.668442,39.329445 180.242599,39.302620 
z"/>
<path fill="#00B4F8" opacity="1.000000" stroke="none" 
	d="
M1.000000,108.454109 
	C2.483654,108.802513 2.600986,107.779953 3.023488,106.696968 
	C10.716430,86.977760 17.616350,66.973526 20.814196,46.002674 
	C22.963890,31.905388 22.972216,17.723745 16.165672,4.443942 
	C15.618278,3.375955 14.968196,2.520230 14.096994,1.341883 
	C15.388889,1.000000 16.777779,1.000000 18.583334,1.000000 
	C19.731874,6.291017 22.083982,11.117866 23.271360,16.329140 
	C25.663439,26.827719 24.573114,37.071201 23.296844,47.483311 
	C21.809114,59.620533 18.379421,71.295410 14.824273,82.869629 
	C11.515069,93.643135 6.861406,104.003426 2.810440,114.549782 
	C2.406104,115.602432 2.076946,116.683975 1.356449,117.876053 
	C1.000000,114.969406 1.000000,111.938812 1.000000,108.454109 
z"/>
<path fill="#000000" opacity="1.000000" stroke="none" 
	d="
M1.397389,71.219650 
	C1.000000,49.979103 1.000000,28.958210 1.000000,7.468657 
	C4.059584,5.580525 4.860867,7.975144 5.542025,9.943538 
	C9.055114,20.095572 10.302044,30.587767 9.258654,41.249043 
	C8.472389,49.283024 7.257320,57.295933 5.355401,65.148277 
	C4.808507,67.406204 5.540961,70.826073 1.397389,71.219650 
z"/>
<path fill="#000000" opacity="1.000000" stroke="none" 
	d="
M261.571533,1.000000 
	C260.519836,3.857692 257.774994,5.546996 255.642593,7.796405 
	C251.366989,12.306587 250.715561,15.396613 253.526489,20.995453 
	C254.893860,23.719011 255.977142,26.382803 254.170151,29.270990 
	C252.147003,32.504726 248.815842,32.294861 245.649338,32.252907 
	C240.501907,32.184700 235.874039,30.462627 230.965851,27.076559 
	C234.281540,27.522074 236.807388,28.152895 239.439041,28.045788 
	C246.183823,27.771275 250.478180,22.386356 247.562622,16.360283 
	C244.874756,10.804873 246.559708,7.924704 251.189407,5.247556 
	C252.846222,4.289501 253.694321,2.157244 255.894180,1.331730 
	C257.714355,1.000000 259.428711,1.000000 261.571533,1.000000 
z"/>
<path fill="#00B4F8" opacity="1.000000" stroke="none" 
	d="
M1.000000,71.464645 
	C2.556990,71.856148 2.754468,70.724899 2.973962,69.643242 
	C5.738737,56.018456 9.085468,42.379490 7.840063,28.385038 
	C7.163955,20.787699 6.742624,12.780017 1.269745,6.662645 
	C1.000000,5.333333 1.058803,3.664049 0.984766,2.000678 
	C0.896864,0.025803 2.372586,1.411838 3.500000,1.000000 
	C3.785909,4.984073 6.935864,7.734448 7.765805,11.373528 
	C10.170624,21.918043 11.538389,32.325703 10.286495,43.350132 
	C8.682506,57.475174 5.633862,71.152191 1.359951,84.861694 
	C1.000000,80.643097 1.000000,76.286201 1.000000,71.464645 
z"/>
<path fill="#000000" opacity="1.000000" stroke="none" 
	d="
M248.571533,1.000000 
	C249.609146,3.684132 246.981323,4.229103 245.772003,5.605032 
	C243.138672,8.601163 242.040482,11.627815 243.794067,15.464920 
	C245.023621,18.155390 246.324677,21.077345 243.738525,23.676250 
	C241.284882,26.141975 238.094482,25.219759 235.304916,24.610344 
	C227.872849,22.986725 221.977005,18.282507 215.760849,14.258510 
	C212.220367,11.966588 208.721619,9.570095 203.937790,9.946165 
	C204.860184,5.771224 207.271011,6.364583 209.792267,7.359931 
	C214.525345,9.228477 217.879242,13.287938 222.586365,15.307181 
	C225.403870,16.515814 228.132431,17.858421 231.122284,18.625027 
	C234.566574,19.508150 237.941010,19.359560 240.020737,16.275877 
	C241.812790,13.618710 241.614349,10.439381 240.011017,7.516574 
	C238.234650,4.278330 241.045425,3.239461 242.901794,1.348114 
	C244.714355,1.000000 246.428711,1.000000 248.571533,1.000000 
z"/>
<path fill="#000000" opacity="1.000000" stroke="none" 
	d="
M236.555832,1.000000 
	C236.460175,4.635386 236.823990,8.070030 238.109589,11.618495 
	C239.253815,14.776750 235.531326,16.924810 231.311554,15.673384 
	C226.656219,14.292782 222.549988,11.863768 218.480042,9.228639 
	C214.903809,6.913162 211.544922,3.895573 206.816711,3.864997 
	C205.835693,3.858653 206.047440,2.606331 205.999725,1.408005 
	C207.388885,1.000000 208.777786,1.000000 210.583344,1.000000 
	C213.361420,2.118806 215.951035,2.582678 218.294525,3.843861 
	C223.646820,6.724274 224.707397,6.388644 228.753433,1.247898 
	C231.370560,1.000000 233.741104,1.000000 236.555832,1.000000 
z"/>
<path fill="#000000" opacity="1.000000" stroke="none" 
	d="
M182.600006,1.000000 
	C182.670227,4.754788 180.375473,7.853439 179.655243,11.557787 
	C178.462845,17.690500 180.993866,22.067829 187.201004,22.952948 
	C188.877106,23.191956 191.019165,23.000235 190.771591,25.243811 
	C190.542084,27.323545 188.350876,26.981359 186.711456,27.008432 
	C183.903885,27.054789 181.253906,26.275469 178.735046,25.214100 
	C174.659897,23.496975 173.122284,20.381134 174.456329,16.070467 
	C175.932022,11.302011 177.478790,6.555550 178.997314,1.399755 
	C180.066666,1.000000 181.133347,1.000000 182.600006,1.000000 
z"/>
<path fill="#000000" opacity="1.000000" stroke="none" 
	d="
M194.600006,1.000000 
	C195.609604,2.697447 196.762741,3.821582 198.283722,4.831910 
	C199.331390,5.527836 202.674423,3.267540 201.410233,7.086977 
	C200.578903,9.598667 200.539749,12.333461 196.395294,12.152107 
	C189.087372,11.832327 187.519150,9.181111 190.995178,1.386091 
	C192.066666,1.000000 193.133347,1.000000 194.600006,1.000000 
z"/>
<path fill="#00B6F9" opacity="1.000000" stroke="none" 
	d="
M228.600006,1.000000 
	C228.112793,7.185672 225.426926,8.749755 219.703094,6.173850 
	C216.788605,4.862247 214.035873,3.191225 211.105011,1.341335 
	C213.041672,1.000000 215.083328,1.000000 217.562500,1.000000 
	C220.096375,2.440473 222.234680,3.346798 224.793884,1.258575 
	C226.066666,1.000000 227.133347,1.000000 228.600006,1.000000 
z"/>
<path fill="#000000" opacity="1.000000" stroke="none" 
	d="
M224.562500,1.000000 
	C225.990128,2.949907 225.491623,3.941419 223.206390,4.020146 
	C220.832153,4.101941 218.824432,3.469457 217.660706,1.275841 
	C220.041672,1.000000 222.083328,1.000000 224.562500,1.000000 
z"/>
<path fill="#000000" opacity="1.000000" stroke="none" 
	d="
M186.930786,3.802087 
	C184.604492,11.177109 187.591324,14.645399 196.740097,15.240669 
	C195.435623,17.075979 195.964951,20.002621 193.849045,20.828287 
	C191.021057,21.931833 188.010864,20.412287 185.317612,19.526348 
	C183.821381,19.034164 181.724243,17.415504 182.033142,15.035160 
	C182.590744,10.738455 183.914658,6.651981 185.986176,2.828581 
	C186.046646,2.716966 186.376358,2.609480 186.420349,2.654967 
	C186.621490,2.863004 186.765457,3.126330 186.930786,3.802087 
z"/>
<path fill="#009DEB" opacity="1.000000" stroke="none" 
	d="
M59.293236,226.372040 
	C60.713306,226.140106 62.437588,226.084625 64.586418,226.112366 
	C63.266865,227.239807 61.451241,227.186890 59.293236,226.372040 
z"/>
<path fill="#009DEB" opacity="1.000000" stroke="none" 
	d="
M111.249710,144.364365 
	C112.064728,144.140137 113.140663,144.084686 114.613884,144.112411 
	C113.910339,144.992813 112.745674,145.127945 111.249710,144.364365 
z"/>
<path fill="#009DEB" opacity="1.000000" stroke="none" 
	d="
M175.176147,39.311798 
	C175.448273,39.123631 175.898560,39.078201 176.680603,39.114197 
	C176.514664,39.634182 175.977188,39.817776 175.176147,39.311798 
z"/>
<path fill="#009DEB" opacity="1.000000" stroke="none" 
	d="
M360.104309,185.269562 
	C360.165649,185.130692 360.336853,185.091782 360.761719,185.124252 
	C361.015381,185.195648 360.643005,185.418869 360.643005,185.418869 
	C360.643005,185.418869 360.214203,185.369522 360.104309,185.269562 
z"/>
<path fill="#009DEB" opacity="1.000000" stroke="none" 
	d="
M363.098297,185.292297 
	C363.156342,185.149307 363.328094,185.102951 363.757690,185.126129 
	C364.015472,185.195648 363.644623,185.425491 363.644623,185.425491 
	C363.644623,185.425491 363.212006,185.388931 363.098297,185.292297 
z"/>
<path fill="#009DEB" opacity="1.000000" stroke="none" 
	d="
M366.099091,185.290436 
	C366.153473,185.148026 366.322296,185.100388 366.747803,185.110825 
	C367.004456,185.168900 366.643921,185.410553 366.643921,185.410553 
	C366.643921,185.410553 366.213531,185.385239 366.099091,185.290436 
z"/>
<path fill="#009DEB" opacity="1.000000" stroke="none" 
	d="
M117.099121,144.290558 
	C117.153732,144.148071 117.322800,144.100494 117.748718,144.111603 
	C118.005577,144.170258 117.644264,144.411346 117.644264,144.411346 
	C117.644264,144.411346 117.213570,144.385452 117.099121,144.290558 
z"/>
<path fill="#009DEB" opacity="1.000000" stroke="none" 
	d="
M108.104210,144.269989 
	C108.165512,144.131027 108.336731,144.091980 108.761658,144.124283 
	C109.015381,144.195648 108.643005,144.418991 108.643005,144.418991 
	C108.643005,144.418991 108.214119,144.369904 108.104210,144.269989 
z"/>
<path fill="#009DEB" opacity="1.000000" stroke="none" 
	d="
M56.104141,226.270050 
	C56.165436,226.131073 56.336662,226.092010 56.761642,226.124298 
	C57.015392,226.195648 56.643002,226.419006 56.643002,226.419006 
	C56.643002,226.419006 56.214077,226.369965 56.104141,226.270050 
z"/>
<path fill="#009DEB" opacity="1.000000" stroke="none" 
	d="
M180.099121,39.290443 
	C180.153549,39.148022 180.322372,39.100407 180.747803,39.110970 
	C181.004425,39.169151 180.643860,39.410690 180.643860,39.410690 
	C180.643860,39.410690 180.213516,39.385246 180.099121,39.290443 
z"/>
<path fill="#009DEB" opacity="1.000000" stroke="none" 
	d="
M67.099136,226.290558 
	C67.153732,226.148071 67.322800,226.100494 67.748756,226.111481 
	C68.005646,226.170044 67.644348,226.411240 67.644348,226.411240 
	C67.644348,226.411240 67.213608,226.385452 67.099136,226.290558 
z"/>
</svg>